<?xml version="1.0" encoding="UTF-8" standalone="no"?>
<!-- Created with Inkscape (http://www.inkscape.org/) -->

<svg
   width="111.28891mm"
   height="175.25703mm"
   viewBox="0 0 111.28891 175.25703"
   version="1.1"
   id="svg4820"
   inkscape:version="1.1 (c68e22c387, 2021-05-23)"
   sodipodi:docname="Buscar.svg"
   xmlns:inkscape="http://www.inkscape.org/namespaces/inkscape"
   xmlns:sodipodi="http://sodipodi.sourceforge.net/DTD/sodipodi-0.dtd"
   xmlns="http://www.w3.org/2000/svg"
   xmlns:svg="http://www.w3.org/2000/svg">
  <sodipodi:namedview
     id="namedview4822"
     pagecolor="#ffffff"
     bordercolor="#666666"
     borderopacity="1.0"
     inkscape:pageshadow="2"
     inkscape:pageopacity="0.0"
     inkscape:pagecheckerboard="0"
     inkscape:document-units="mm"
     showgrid="false"
     inkscape:zoom="0.7500982"
     inkscape:cx="244.63464"
     inkscape:cy="393.28184"
     inkscape:window-width="1920"
     inkscape:window-height="1028"
     inkscape:window-x="-8"
     inkscape:window-y="-8"
     inkscape:window-maximized="1"
     inkscape:current-layer="layer1" />
  <defs
     id="defs4817" />
  <g
     inkscape:label="Capa 1"
     inkscape:groupmode="layer"
     id="layer1"
     transform="translate(-45.764971,-15.255549)">
    <path
       id="path4848"
       style="fill:#ffffff;stroke-width:4.16499;fill-opacity:1"
       d="M 107.05383,15.255549 A 50,50 0 0 0 57.053786,65.255596 50,50 0 0 0 107.05383,115.25513 50,50 0 0 0 157.05388,65.255596 50,50 0 0 0 107.05383,15.255549 Z m 5.2e-4,19.823596 A 30,30 0 0 1 137.05407,65.078863 30,30 0 0 1 107.05435,95.079099 30,30 0 0 1 77.054114,65.078863 30,30 0 0 1 107.05435,35.079145 Z" />
    <rect
       style="fill:#ffffff;fill-opacity:1;stroke-width:4.16499"
       id="rect6487"
       width="25.043943"
       height="91.004745"
       x="108.29811"
       y="61.611084"
       transform="rotate(21.204516)" />
  </g>
</svg>
